<?xml version="1.0" standalone="no"?>
<!DOCTYPE svg PUBLIC "-//W3C//DTD SVG 1.1//EN" "http://www.w3.org/Graphics/SVG/1.1/DTD/svg11.dtd" >
<svg xmlns="http://www.w3.org/2000/svg" xmlns:xlink="http://www.w3.org/1999/xlink" version="1.1" viewBox="-10 0 2610 2048">
   <path fill="currentColor"
d="M337 1838q-61 -44 -86.5 -109t-30.5 -134t-5 -124v-1433h1992v100h178v1333q0 55 -5 124t-30.5 134t-86.5 109h-1926zM501 1738q-27 -23 -31.5 -59t-4.5 -68v-416h952v416q0 32 4.5 68t31.5 59h-952zM465 1015v-240h400v240h-400zM1597 1594v-80h400v80h-400zM1025 1015
v-80h400v80h-400zM374 1738h1773q-30 -65 -35 -137t-5 -130v-1333h-1792v1333q0 74 7.5 147t51.5 120zM1597 1434v-80h400v80h-400zM1025 855v-80h400v80h-400zM1597 1274v-80h400v80h-400zM1597 1015v-80h400v80h-400zM1597 855v-80h400v80h-400zM2255 1694
q23 -47 26.5 -105.5t3.5 -117.5v-1233h-78v1233q0 52 6 106.5t42 116.5zM1230 620q72 0 125.5 -53.5t53.5 -125.5q0 -74 -53 -127t-126 -53t-126 53t-53 127q0 73 53 126t126 53zM465 600h522v-299h-522v299zM1995 600v-299h-522v299h522z" />
</svg>
